<svg width="24" height="23" viewBox="0 0 24 23" fill="none" xmlns="http://www.w3.org/2000/svg">
<rect opacity="0.01" width="24" height="23" fill="black"/>
<path fill-rule="evenodd" clip-rule="evenodd" d="M17 3.9H18C19.6569 3.9 21 5.17599 21 6.75V18.15C21 19.724 19.6569 21 18 21H6C4.34315 21 3 19.724 3 18.15V6.75C3 5.17599 4.34315 3.9 6 3.9H7V2.95C7 2.42533 7.44772 2 8 2C8.55228 2 9 2.42533 9 2.95V3.9H15V2.95C15 2.42533 15.4477 2 16 2C16.5523 2 17 2.42533 17 2.95V3.9ZM7 15.2999C7 15.8246 7.44772 16.2499 8 16.2499C8.55228 16.2499 9 15.8246 9 15.2999C9 14.7752 8.55228 14.3499 8 14.3499C7.44772 14.3499 7 14.7752 7 15.2999ZM16 16.2499H12C11.4477 16.2499 11 15.8246 11 15.2999C11 14.7752 11.4477 14.3499 12 14.3499H16C16.5523 14.3499 17 14.7752 17 15.2999C17 15.8246 16.5523 16.2499 16 16.2499ZM5 10.5499H19V6.74992C19 6.22525 18.5523 5.79992 18 5.79992H17V6.74992C17 7.27459 16.5523 7.69992 16 7.69992C15.4477 7.69992 15 7.27459 15 6.74992V5.79992H9V6.74992C9 7.27459 8.55228 7.69992 8 7.69992C7.44772 7.69992 7 7.27459 7 6.74992V5.79992H6C5.44772 5.79992 5 6.22525 5 6.74992V10.5499Z" fill="#80838D"/>
</svg>
