<svg width="24" height="24" viewBox="0 0 24 24" fill="none" xmlns="http://www.w3.org/2000/svg">
<path fill-rule="evenodd" clip-rule="evenodd" d="M6.71991 10.6L8.15891 11.8C9.99491 13.33 10.9139 14.095 11.9989 14.095C13.0859 14.095 14.0039 13.33 15.8409 11.799L17.2809 10.599C17.6339 10.305 17.8109 10.157 17.9049 9.956C17.9999 9.754 17.9999 9.524 17.9999 9.063V7C17.9999 6.68 17.9999 6.38 17.9979 6.102C17.9859 4.331 17.8999 3.365 17.2679 2.732C16.5349 2 15.3569 2 12.9999 2H10.9999C8.64291 2 7.46391 2 6.73191 2.732C6.09891 3.365 6.01191 4.331 5.99991 6.102C5.99791 6.381 5.99991 6.679 5.99991 7V9.063C5.99991 9.523 5.99991 9.754 6.09391 9.956C6.18891 10.157 6.36691 10.305 6.71991 10.6ZM9.24991 6C9.24991 5.80109 9.32893 5.61032 9.46958 5.46967C9.61023 5.32902 9.801 5.25 9.99991 5.25H13.9999C14.1988 5.25 14.3896 5.32902 14.5302 5.46967C14.6709 5.61032 14.7499 5.80109 14.7499 6C14.7499 6.19891 14.6709 6.38968 14.5302 6.53033C14.3896 6.67098 14.1988 6.75 13.9999 6.75H9.99991C9.801 6.75 9.61023 6.67098 9.46958 6.53033C9.32893 6.38968 9.24991 6.19891 9.24991 6ZM10.2499 9C10.2499 8.80109 10.3289 8.61032 10.4696 8.46967C10.6102 8.32902 10.801 8.25 10.9999 8.25H12.9999C13.1988 8.25 13.3896 8.32902 13.5302 8.46967C13.6709 8.61032 13.7499 8.80109 13.7499 9C13.7499 9.19891 13.6709 9.38968 13.5302 9.53033C13.3896 9.67098 13.1988 9.75 12.9999 9.75H10.9999C10.801 9.75 10.6102 9.67098 10.4696 9.53033C10.3289 9.38968 10.2499 9.19891 10.2499 9Z" fill="#80838D"/>
<path opacity="0.5" d="M8.159 11.8L6.719 10.6C6.366 10.305 6.189 10.158 6.094 9.95601C6 9.75401 6 9.524 6 9.064V6.10201C4.7 6.23001 3.825 6.519 3.172 7.172C2 8.343 2 10.23 2 14.002C2 17.772 2 19.658 3.172 20.829C4.343 22.001 6.229 22.001 10 22.001H14C17.771 22.001 19.657 22.001 20.828 20.829C22 19.659 22 17.773 22 14.002C22 10.231 22 8.344 20.828 7.172C20.175 6.519 19.299 6.23001 17.998 6.10201C18 6.38201 18 6.681 18 7.002V9.065C18 9.525 18 9.755 17.905 9.957C17.811 10.159 17.635 10.307 17.28 10.601L15.84 11.801C14.004 13.331 13.086 14.096 12 14.096C10.914 14.096 9.995 13.331 8.159 11.8Z" fill="#80838D"/>
</svg>
