<svg width="24" height="25" viewBox="0 0 24 25" fill="none" xmlns="http://www.w3.org/2000/svg">
<path fill-rule="evenodd" clip-rule="evenodd" d="M6.71991 11.1L8.15891 12.3C9.99491 13.83 10.9139 14.595 11.9989 14.595C13.0859 14.595 14.0039 13.83 15.8409 12.299L17.2809 11.099C17.6339 10.805 17.8109 10.657 17.9049 10.456C17.9999 10.254 17.9999 10.024 17.9999 9.563V7.5C17.9999 7.18 17.9999 6.88 17.9979 6.602C17.9859 4.831 17.8999 3.865 17.2679 3.232C16.5349 2.5 15.3569 2.5 12.9999 2.5H10.9999C8.64291 2.5 7.46391 2.5 6.73191 3.232C6.09891 3.865 6.01191 4.831 5.99991 6.602C5.99791 6.881 5.99991 7.179 5.99991 7.5V9.563C5.99991 10.023 5.99991 10.254 6.09391 10.456C6.18891 10.657 6.36691 10.805 6.71991 11.1ZM9.24991 6.5C9.24991 6.30109 9.32893 6.11032 9.46958 5.96967C9.61023 5.82902 9.801 5.75 9.99991 5.75H13.9999C14.1988 5.75 14.3896 5.82902 14.5302 5.96967C14.6709 6.11032 14.7499 6.30109 14.7499 6.5C14.7499 6.69891 14.6709 6.88968 14.5302 7.03033C14.3896 7.17098 14.1988 7.25 13.9999 7.25H9.99991C9.801 7.25 9.61023 7.17098 9.46958 7.03033C9.32893 6.88968 9.24991 6.69891 9.24991 6.5ZM10.2499 9.5C10.2499 9.30109 10.3289 9.11032 10.4696 8.96967C10.6102 8.82902 10.801 8.75 10.9999 8.75H12.9999C13.1988 8.75 13.3896 8.82902 13.5302 8.96967C13.6709 9.11032 13.7499 9.30109 13.7499 9.5C13.7499 9.69891 13.6709 9.88968 13.5302 10.0303C13.3896 10.171 13.1988 10.25 12.9999 10.25H10.9999C10.801 10.25 10.6102 10.171 10.4696 10.0303C10.3289 9.88968 10.2499 9.69891 10.2499 9.5Z" fill="#1886E5"/>
<path opacity="0.5" d="M8.159 12.2996L6.719 11.0996C6.366 10.8046 6.189 10.6576 6.094 10.4556C6 10.2536 6 10.0236 6 9.56356V6.60156C4.7 6.72956 3.825 7.01856 3.172 7.67156C2 8.84256 2 10.7296 2 14.5016C2 18.2716 2 20.1576 3.172 21.3286C4.343 22.5006 6.229 22.5006 10 22.5006H14C17.771 22.5006 19.657 22.5006 20.828 21.3286C22 20.1586 22 18.2726 22 14.5016C22 10.7306 22 8.84356 20.828 7.67156C20.175 7.01856 19.299 6.72956 17.998 6.60156C18 6.88156 18 7.18056 18 7.50156V9.56456C18 10.0246 18 10.2546 17.905 10.4566C17.811 10.6586 17.635 10.8066 17.28 11.1006L15.84 12.3006C14.004 13.8306 13.086 14.5956 12 14.5956C10.914 14.5956 9.995 13.8306 8.159 12.2996Z" fill="#1886E5"/>
</svg>
