<svg width="24" height="23" viewBox="0 0 24 23" fill="none" xmlns="http://www.w3.org/2000/svg">
<rect opacity="0.01" x="24" y="23" width="24" height="23" transform="rotate(180 24 23)" fill="#1886E5"/>
<path d="M3.2403 6.98704L11.7603 11.4241C11.9103 11.5008 12.0903 11.5008 12.2403 11.4241L20.7603 6.98704C20.9192 6.91182 21.0156 6.75254 21.0046 6.58298C20.9937 6.41342 20.8777 6.2667 20.7103 6.21079L12.1903 2.87579C12.0686 2.82786 11.932 2.82786 11.8103 2.87579L3.2903 6.21079C3.12291 6.2667 3.00688 6.41342 2.99596 6.58298C2.98504 6.75254 3.08135 6.91182 3.2403 6.98704Z" fill="#1886E5"/>
<path d="M20.7101 10.2162L18.8801 9.46875L12.2401 12.9283C12.0901 13.005 11.9101 13.005 11.7601 12.9283L5.1201 9.46875L3.2901 10.2162C3.13214 10.2957 3.0332 10.4526 3.0332 10.6235C3.0332 10.7945 3.13214 10.9514 3.2901 11.0308L11.8101 15.7267C11.9574 15.813 12.1428 15.813 12.2901 15.7267L20.8101 11.0308C20.9605 10.9349 21.042 10.7661 21.0209 10.5941C20.9998 10.4222 20.8797 10.2761 20.7101 10.2162Z" fill="#1886E5"/>
<path d="M20.7098 14.47L19.1498 13.8184L12.2398 17.4217C12.0898 17.4984 11.9098 17.4984 11.7598 17.4217L4.84984 13.8184L3.28984 14.47C3.12737 14.5508 3.02539 14.7115 3.02539 14.8869C3.02539 15.0623 3.12737 15.223 3.28984 15.3038L11.8098 20.0954C11.9598 20.1721 12.1398 20.1721 12.2898 20.0954L20.8098 15.3038C20.9648 15.2065 21.0493 15.0337 21.0281 14.8573C21.007 14.681 20.8838 14.5311 20.7098 14.47Z" fill="#1886E5"/>
</svg>
