<svg width="24" height="23" viewBox="0 0 24 23" fill="none" xmlns="http://www.w3.org/2000/svg">
<rect opacity="0.01" x="24" y="23" width="24" height="23" transform="rotate(180 24 23)" fill="black"/>
<path d="M3.23981 6.98624L11.7598 11.4233C11.9098 11.5 12.0898 11.5 12.2398 11.4233L20.7598 6.98624C20.9188 6.91102 21.0151 6.75174 21.0042 6.58219C20.9932 6.41263 20.8772 6.26591 20.7098 6.20999L12.1898 2.87499C12.0681 2.82707 11.9315 2.82707 11.8098 2.87499L3.28981 6.20999C3.12242 6.26591 3.00639 6.41263 2.99547 6.58219C2.98455 6.75174 3.08087 6.91102 3.23981 6.98624Z" fill="#80838D"/>
<path d="M20.7101 10.2158L18.8801 9.46834L12.2401 12.9279C12.0901 13.0046 11.9101 13.0046 11.7601 12.9279L5.1201 9.46834L3.2901 10.2158C3.13214 10.2953 3.0332 10.4522 3.0332 10.6231C3.0332 10.7941 3.13214 10.951 3.2901 11.0304L11.8101 15.7263C11.9574 15.8126 12.1428 15.8126 12.2901 15.7263L20.8101 11.0304C20.9605 10.9345 21.042 10.7657 21.0209 10.5937C20.9998 10.4217 20.8797 10.2757 20.7101 10.2158V10.2158Z" fill="#80838D"/>
<path d="M20.7098 14.4708L19.1498 13.8192L12.2398 17.4225C12.0898 17.4992 11.9098 17.4992 11.7598 17.4225L4.84984 13.8192L3.28984 14.4708C3.12737 14.5516 3.02539 14.7123 3.02539 14.8877C3.02539 15.0631 3.12737 15.2239 3.28984 15.3046L11.8098 20.0963C11.9598 20.1729 12.1398 20.1729 12.2898 20.0963L20.8098 15.3046C20.9648 15.2073 21.0493 15.0345 21.0281 14.8582C21.007 14.6818 20.8838 14.5319 20.7098 14.4708Z" fill="#80838D"/>
</svg>
