<svg width="24" height="23" viewBox="0 0 24 23" fill="none" xmlns="http://www.w3.org/2000/svg">
<rect opacity="0.01" x="24" y="23" width="24" height="23" transform="rotate(180 24 23)" fill="black"/>
<path d="M12 12.9375C12.8284 12.9375 13.5 12.2939 13.5 11.5C13.5 10.7061 12.8284 10.0625 12 10.0625C11.1716 10.0625 10.5 10.7061 10.5 11.5C10.5 12.2939 11.1716 12.9375 12 12.9375Z" fill="#80838D"/>
<path fill-rule="evenodd" clip-rule="evenodd" d="M19.23 8.97957H20.32C21.2495 8.98484 22 9.70842 22 10.5992V12.4583C21.9952 13.3218 21.2805 14.0279 20.38 14.0587H19.29C19.1589 14.0693 19.046 14.1514 19 14.2696C18.927 14.3774 18.927 14.5163 19 14.6242L19.73 15.3237C20.0457 15.6242 20.2233 16.033 20.2233 16.4594C20.2233 16.8858 20.0457 17.2945 19.73 17.595L18.39 18.8792C18.0801 19.1847 17.6546 19.3575 17.21 19.3583C16.7635 19.3527 16.3367 19.1809 16.02 18.8792L15.26 18.1412C15.1475 18.0713 15.0025 18.0713 14.89 18.1412C14.74 18.1987 14.63 18.2946 14.63 18.4287V19.4733C14.6245 20.364 13.8695 21.0833 12.94 21.0833H11.05C10.1451 21.0839 9.40232 20.3975 9.37 19.5308V18.4862C9.35895 18.3606 9.27326 18.2524 9.15 18.2083C9.02506 18.1316 8.86494 18.1316 8.74 18.2083L7.97 18.9175C7.65648 19.2201 7.22994 19.3902 6.785 19.3902C6.34006 19.3902 5.91352 19.2201 5.6 18.9175L4.26 17.6142C3.93962 17.3142 3.75931 16.903 3.76 16.4737C3.76586 16.0458 3.94517 15.6368 4.26 15.3333L5.07 14.6242C5.14298 14.5163 5.14298 14.3774 5.07 14.2696C5.01 14.1258 4.91 14.0204 4.77 14.0204H3.68C2.75055 14.0151 1.99998 13.2916 2 12.4008V10.5896C2 9.7004 2.75216 8.97957 3.68 8.97957H4.71C4.84109 8.96898 4.95403 8.88687 5 8.76874C5.08005 8.649 5.08005 8.49556 5 8.37582L4.26 7.66666C3.93494 7.36516 3.75142 6.95018 3.75142 6.51666C3.75142 6.08313 3.93494 5.66816 4.26 5.36666L5.63 4.08249C5.9399 3.77693 6.36536 3.60415 6.81 3.60332C7.25653 3.60894 7.68328 3.78078 8 4.08249L8.74 4.85874C8.85254 4.92868 8.99746 4.92868 9.11 4.85874C9.26 4.80124 9.37 4.70541 9.37 4.57124V3.52666C9.3755 2.63593 10.1305 1.91664 11.06 1.91666H13C13.9083 1.94257 14.6304 2.65586 14.63 3.52666V4.51374C14.6411 4.63937 14.7267 4.74761 14.85 4.79166C14.9749 4.86837 15.1351 4.86837 15.26 4.79166L16.03 4.08249C16.3435 3.77992 16.7701 3.60977 17.215 3.60977C17.6599 3.60977 18.0865 3.77992 18.4 4.08249L19.74 5.39541C20.0594 5.69596 20.2396 6.10683 20.24 6.53582C20.2414 6.96238 20.0608 7.37095 19.74 7.66666L18.93 8.37582C18.857 8.48367 18.857 8.62256 18.93 8.73041C18.99 8.87416 19.09 8.97957 19.23 8.97957ZM8.76642 12.7836C9.30815 14.0369 10.5844 14.8542 12 14.8542C13.933 14.8542 15.5 13.3524 15.5 11.5C15.5 10.1434 14.6473 8.9203 13.3394 8.40114C12.0315 7.88198 10.5261 8.16895 9.52513 9.12824C8.52413 10.0875 8.22469 11.5302 8.76642 12.7836Z" fill="#80838D"/>
</svg>
