<svg width="24" height="23" viewBox="0 0 24 23" fill="none" xmlns="http://www.w3.org/2000/svg">
<rect opacity="0.01" width="24" height="23" fill="#80838D"/>
<path d="M9 2.875H5C3.89543 2.875 3 3.73312 3 4.79167V8.625C3 9.68355 3.89543 10.5417 5 10.5417H9C10.1046 10.5417 11 9.68355 11 8.625V4.79167C11 3.73312 10.1046 2.875 9 2.875Z" fill="#80838D"/>
<path d="M19 2.875H15C13.8954 2.875 13 3.73312 13 4.79167V8.625C13 9.68355 13.8954 10.5417 15 10.5417H19C20.1046 10.5417 21 9.68355 21 8.625V4.79167C21 3.73312 20.1046 2.875 19 2.875Z" fill="#80838D"/>
<path d="M9 12.459H5C3.89543 12.459 3 13.3171 3 14.3757V18.209C3 19.2675 3.89543 20.1257 5 20.1257H9C10.1046 20.1257 11 19.2675 11 18.209V14.3757C11 13.3171 10.1046 12.459 9 12.459Z" fill="#80838D"/>
<path d="M19 12.459H15C13.8954 12.459 13 13.3171 13 14.3757V18.209C13 19.2675 13.8954 20.1257 15 20.1257H19C20.1046 20.1257 21 19.2675 21 18.209V14.3757C21 13.3171 20.1046 12.459 19 12.459Z" fill="#80838D"/>
</svg>
