<svg width="24" height="23" viewBox="0 0 24 23" fill="none" xmlns="http://www.w3.org/2000/svg">
<rect opacity="0.01" width="24" height="23" fill="#1886E5"/>
<path d="M9 2.875H5C3.89543 2.875 3 3.73312 3 4.79167V8.625C3 9.68355 3.89543 10.5417 5 10.5417H9C10.1046 10.5417 11 9.68355 11 8.625V4.79167C11 3.73312 10.1046 2.875 9 2.875Z" fill="#1886E5"/>
<path d="M19 2.875H15C13.8954 2.875 13 3.73312 13 4.79167V8.625C13 9.68355 13.8954 10.5417 15 10.5417H19C20.1046 10.5417 21 9.68355 21 8.625V4.79167C21 3.73312 20.1046 2.875 19 2.875Z" fill="#1886E5"/>
<path d="M9 12.4583H5C3.89543 12.4583 3 13.3165 3 14.375V18.2083C3 19.2669 3.89543 20.125 5 20.125H9C10.1046 20.125 11 19.2669 11 18.2083V14.375C11 13.3165 10.1046 12.4583 9 12.4583Z" fill="#1886E5"/>
<path d="M19 12.4583H15C13.8954 12.4583 13 13.3165 13 14.375V18.2083C13 19.2669 13.8954 20.125 15 20.125H19C20.1046 20.125 21 19.2669 21 18.2083V14.375C21 13.3165 20.1046 12.4583 19 12.4583Z" fill="#1886E5"/>
</svg>
