<svg width="24" height="23" viewBox="0 0 24 23" fill="none" xmlns="http://www.w3.org/2000/svg">
<rect opacity="0.01" width="24" height="23" fill="#80838D"/>
<path d="M9 10.5417C11.2091 10.5417 13 8.82543 13 6.70833C13 4.59124 11.2091 2.875 9 2.875C6.79086 2.875 5 4.59124 5 6.70833C5 8.82543 6.79086 10.5417 9 10.5417Z" fill="#80838D"/>
<path d="M17 12.4583C18.6569 12.4583 20 11.1712 20 9.58334C20 7.99552 18.6569 6.70834 17 6.70834C15.3431 6.70834 14 7.99552 14 9.58334C14 11.1712 15.3431 12.4583 17 12.4583Z" fill="#80838D"/>
<path d="M21 19.1667C21.5523 19.1667 22 18.7376 22 18.2083C21.9984 16.3811 20.9125 14.7138 19.2003 13.9097C17.4882 13.1056 15.4479 13.3046 13.94 14.4229C11.9371 12.511 8.93071 11.9413 6.31923 12.9788C3.70774 14.0164 2.00382 16.4575 2 19.1667C2 19.6959 2.44772 20.125 3 20.125H15C15.5523 20.125 16 19.6959 16 19.1667" fill="#80838D"/>
</svg>
