<svg width="24" height="23" viewBox="0 0 24 23" fill="none" xmlns="http://www.w3.org/2000/svg">
<rect opacity="0.01" width="24" height="23" fill="#1886E5"/>
<path d="M9 10.5417C11.2091 10.5417 13 8.82543 13 6.70833C13 4.59124 11.2091 2.875 9 2.875C6.79086 2.875 5 4.59124 5 6.70833C5 8.82543 6.79086 10.5417 9 10.5417Z" fill="#1886E5"/>
<path d="M17 12.459C18.6569 12.459 20 11.1718 20 9.58398C20 7.99617 18.6569 6.70898 17 6.70898C15.3431 6.70898 14 7.99617 14 9.58398C14 11.1718 15.3431 12.459 17 12.459Z" fill="#1886E5"/>
<path d="M21 19.1662C21.5523 19.1662 22 18.7372 22 18.2079C21.9984 16.3807 20.9125 14.7134 19.2003 13.9093C17.4882 13.1052 15.4479 13.3042 13.94 14.4225C11.9371 12.5106 8.93071 11.9409 6.31923 12.9784C3.70774 14.016 2.00382 16.457 2 19.1662C2 19.6955 2.44772 20.1246 3 20.1246H15C15.5523 20.1246 16 19.6955 16 19.1662" fill="#1886E5"/>
</svg>
