<svg width="28" height="28" viewBox="0 0 28 28" fill="none" xmlns="http://www.w3.org/2000/svg">
<path fill-rule="evenodd" clip-rule="evenodd" d="M13.8928 4C12.0267 4.06596 10.2144 4.62674 8.65109 5.62194C7.08777 6.61713 5.83262 8.00906 5.02081 9.64782C4.20901 11.2866 3.87128 13.1101 4.04402 14.922C4.21675 16.734 4.89339 18.4657 6.00108 19.9307C7.10877 21.3956 8.60555 22.5384 10.3302 23.2359C12.0549 23.9335 13.9422 24.1593 15.7888 23.8891C17.6355 23.619 19.3715 22.8631 20.81 21.7028C22.2485 20.5425 23.3349 19.0217 23.9524 17.3044C24.0021 17.1508 24.0131 16.9877 23.9843 16.8291C23.9556 16.6705 23.8879 16.521 23.7871 16.3933C23.6863 16.2656 23.5554 16.1635 23.4055 16.0957C23.2555 16.028 23.091 15.9965 22.9259 16.0039H22.4126C21.102 16.0094 19.8091 15.7091 18.642 15.1281C17.4748 14.5472 16.4673 13.7024 15.7036 12.6644C14.94 11.6264 14.4423 10.4254 14.2523 9.16171C14.0623 7.898 14.1854 6.60833 14.6113 5.40046L14.714 5.00033C14.7188 4.76631 14.6393 4.53804 14.4893 4.35526C14.3392 4.17248 14.1281 4.04677 13.8928 4Z" fill="white"/>
</svg>
