<svg width="28" height="28" viewBox="0 0 28 28" fill="none" xmlns="http://www.w3.org/2000/svg">
<path d="M21 14C21 15.8565 20.2625 17.637 18.9497 18.9497C17.637 20.2625 15.8565 21 14 21C12.1435 21 10.363 20.2625 9.05025 18.9497C7.7375 17.637 7 15.8565 7 14C7 12.1435 7.7375 10.363 9.05025 9.05025C10.363 7.7375 12.1435 7 14 7C15.8565 7 17.637 7.7375 18.9497 9.05025C20.2625 10.363 21 12.1435 21 14Z" fill="#0A111C"/>
<path fill-rule="evenodd" clip-rule="evenodd" d="M14.0002 1.45825C14.2322 1.45825 14.4548 1.55044 14.6189 1.71453C14.783 1.87863 14.8752 2.10119 14.8752 2.33325V3.49992C14.8752 3.73198 14.783 3.95454 14.6189 4.11864C14.4548 4.28273 14.2322 4.37492 14.0002 4.37492C13.7681 4.37492 13.5455 4.28273 13.3814 4.11864C13.2174 3.95454 13.1252 3.73198 13.1252 3.49992V2.33325C13.1252 2.10119 13.2174 1.87863 13.3814 1.71453C13.5455 1.55044 13.7681 1.45825 14.0002 1.45825ZM1.4585 13.9999C1.4585 13.7679 1.55068 13.5453 1.71478 13.3812C1.87887 13.2171 2.10143 13.1249 2.3335 13.1249H3.50016C3.73223 13.1249 3.95479 13.2171 4.11888 13.3812C4.28298 13.5453 4.37516 13.7679 4.37516 13.9999C4.37516 14.232 4.28298 14.4545 4.11888 14.6186C3.95479 14.7827 3.73223 14.8749 3.50016 14.8749H2.3335C2.10143 14.8749 1.87887 14.7827 1.71478 14.6186C1.55068 14.4545 1.4585 14.232 1.4585 13.9999ZM23.6252 13.9999C23.6252 13.7679 23.7173 13.5453 23.8814 13.3812C24.0455 13.2171 24.2681 13.1249 24.5002 13.1249H25.6668C25.8989 13.1249 26.1215 13.2171 26.2855 13.3812C26.4496 13.5453 26.5418 13.7679 26.5418 13.9999C26.5418 14.232 26.4496 14.4545 26.2855 14.6186C26.1215 14.7827 25.8989 14.8749 25.6668 14.8749H24.5002C24.2681 14.8749 24.0455 14.7827 23.8814 14.6186C23.7173 14.4545 23.6252 14.232 23.6252 13.9999ZM14.0002 23.6249C14.2322 23.6249 14.4548 23.7171 14.6189 23.8812C14.783 24.0453 14.8752 24.2679 14.8752 24.4999V25.6666C14.8752 25.8986 14.783 26.1212 14.6189 26.2853C14.4548 26.4494 14.2322 26.5416 14.0002 26.5416C13.7681 26.5416 13.5455 26.4494 13.3814 26.2853C13.2174 26.1212 13.1252 25.8986 13.1252 25.6666V24.4999C13.1252 24.2679 13.2174 24.0453 13.3814 23.8812C13.5455 23.7171 13.7681 23.6249 14.0002 23.6249Z" fill="#0A111C"/>
<path opacity="0.5" d="M5.13084 5.13099C5.2121 5.04968 5.30858 4.98518 5.41478 4.94117C5.52098 4.89716 5.6348 4.87451 5.74976 4.87451C5.86471 4.87451 5.97854 4.89716 6.08474 4.94117C6.19093 4.98518 6.28742 5.04968 6.36868 5.13099L6.82718 5.58949C6.98174 5.75536 7.06588 5.97475 7.06188 6.20143C7.05788 6.42812 6.96605 6.6444 6.80573 6.80472C6.64542 6.96503 6.42914 7.05686 6.20245 7.06086C5.97577 7.06486 5.75638 6.98072 5.59051 6.82616L5.13084 6.36882C4.96698 6.20476 4.87495 5.98237 4.87495 5.75049C4.87495 5.51862 4.96698 5.29622 5.13084 5.13216M22.8665 5.13216C23.0304 5.29622 23.1224 5.51862 23.1224 5.75049C23.1224 5.98237 23.0304 6.20476 22.8665 6.36882L22.4092 6.82732C22.2433 6.98188 22.0239 7.06603 21.7972 7.06203C21.5705 7.05803 21.3543 6.9662 21.194 6.80588C21.0336 6.64557 20.9418 6.42929 20.9378 6.2026C20.9338 5.97592 21.018 5.75653 21.1725 5.59066L21.6298 5.13216C21.7939 4.9683 22.0163 4.87626 22.2482 4.87626C22.4801 4.87626 22.7024 4.9683 22.8665 5.13216ZM21.1713 21.1715C21.2526 21.0902 21.3491 21.0257 21.4553 20.9817C21.5615 20.9377 21.6753 20.915 21.7903 20.915C21.9052 20.915 22.019 20.9377 22.1252 20.9817C22.2314 21.0257 22.3279 21.0902 22.4092 21.1715L22.8677 21.63C23.0222 21.7959 23.1064 22.0152 23.1024 22.2419C23.0984 22.4686 23.0066 22.6849 22.8462 22.8452C22.6859 23.0055 22.4696 23.0974 22.243 23.1014C22.0163 23.1054 21.7969 23.0212 21.631 22.8667L21.1713 22.4093C21.0075 22.2453 20.9154 22.0229 20.9154 21.791C20.9154 21.5591 21.0075 21.3367 21.1713 21.1727M6.82718 21.1727C6.99103 21.3367 7.08307 21.5591 7.08307 21.791C7.08307 22.0229 6.99103 22.2453 6.82718 22.4093L6.36868 22.8678C6.28857 22.9538 6.19197 23.0227 6.08464 23.0706C5.9773 23.1184 5.86144 23.1441 5.74395 23.1462C5.62646 23.1483 5.50976 23.1266 5.40081 23.0826C5.29186 23.0386 5.19289 22.9731 5.1098 22.89C5.02671 22.8069 4.96121 22.708 4.9172 22.599C4.87319 22.4901 4.85158 22.3734 4.85365 22.2559C4.85572 22.1384 4.88144 22.0225 4.92926 21.9152C4.97709 21.8079 5.04604 21.7113 5.13201 21.6312L5.58934 21.1727C5.7534 21.0088 5.9758 20.9168 6.20768 20.9168C6.43955 20.9168 6.66195 21.0088 6.82601 21.1727" fill="#0A111C"/>
</svg>
