<svg width="16" height="17" viewBox="0 0 16 17" fill="none" xmlns="http://www.w3.org/2000/svg">
<path fill-rule="evenodd" clip-rule="evenodd" d="M14.6281 1.29496C14.1415 0.808448 13.4815 0.535141 12.7933 0.535141C12.1052 0.535141 11.4452 0.808448 10.9585 1.29496L10.3469 1.90741L14.629 6.18937L15.2397 5.57779C15.4808 5.3368 15.672 5.0507 15.8024 4.73581C15.9329 4.42093 16 4.08343 16 3.7426C16 3.40176 15.9329 3.06427 15.8024 2.74938C15.672 2.4345 15.4808 2.1484 15.2397 1.90741L14.6281 1.29496ZM13.4049 7.41254L9.12285 3.13058L1.25939 10.9947C1.08732 11.1668 0.96711 11.3838 0.912502 11.621L0.0223484 15.4747C-0.0108192 15.6178 -0.00701468 15.767 0.0334032 15.9082C0.0738212 16.0493 0.149522 16.1779 0.253372 16.2818C0.357222 16.3856 0.485803 16.4613 0.626999 16.5017C0.768194 16.5422 0.917356 16.546 1.06043 16.5128L4.91516 15.6235C5.15202 15.5688 5.36874 15.4486 5.54061 15.2766L13.4049 7.41254Z" fill="#0A111C" fill-opacity="0.5"/>
</svg>
