<svg width="32" height="32" viewBox="0 0 32 32" fill="none" xmlns="http://www.w3.org/2000/svg">
<rect opacity="0.01" width="32" height="32" fill="#202224"/>
<path d="M12 4H6.66667C5.19391 4 4 5.19391 4 6.66667V12C4 13.4728 5.19391 14.6667 6.66667 14.6667H12C13.4728 14.6667 14.6667 13.4728 14.6667 12V6.66667C14.6667 5.19391 13.4728 4 12 4Z" fill="#B5B6BA"/>
<path d="M25.333 4H19.9997C18.5269 4 17.333 5.19391 17.333 6.66667V12C17.333 13.4728 18.5269 14.6667 19.9997 14.6667H25.333C26.8058 14.6667 27.9997 13.4728 27.9997 12V6.66667C27.9997 5.19391 26.8058 4 25.333 4Z" fill="#B5B6BA"/>
<path d="M12 17.3333H6.66667C5.19391 17.3333 4 18.5272 4 19.9999V25.3333C4 26.806 5.19391 27.9999 6.66667 27.9999H12C13.4728 27.9999 14.6667 26.806 14.6667 25.3333V19.9999C14.6667 18.5272 13.4728 17.3333 12 17.3333Z" fill="#B5B6BA"/>
<path d="M25.333 17.3333H19.9997C18.5269 17.3333 17.333 18.5272 17.333 19.9999V25.3333C17.333 26.806 18.5269 27.9999 19.9997 27.9999H25.333C26.8058 27.9999 27.9997 26.806 27.9997 25.3333V19.9999C27.9997 18.5272 26.8058 17.3333 25.333 17.3333Z" fill="#B5B6BA"/>
</svg>
