<svg width="40" height="41" viewBox="0 0 40 41" fill="none" xmlns="http://www.w3.org/2000/svg">
<rect y="0.081543" width="40" height="40" rx="6" fill="#1886E5" fill-opacity="0.8"/>
<g clip-path="url(#clip0_9_784)">
<path fill-rule="evenodd" clip-rule="evenodd" d="M14.6667 13.4149C14.6667 12.0004 15.2286 10.6438 16.2288 9.64364C17.229 8.64345 18.5855 8.08154 20 8.08154C21.4145 8.08154 22.771 8.64345 23.7712 9.64364C24.7714 10.6438 25.3333 12.0004 25.3333 13.4149C25.3333 14.8294 24.7714 16.1859 23.7712 17.1861C22.771 18.1863 21.4145 18.7482 20 18.7482C18.5855 18.7482 17.229 18.1863 16.2288 17.1861C15.2286 16.1859 14.6667 14.8294 14.6667 13.4149ZM14.6667 21.4149C12.8986 21.4149 11.2029 22.1173 9.95262 23.3675C8.70238 24.6177 8 26.3134 8 28.0815C8 29.1424 8.42143 30.1598 9.17157 30.91C9.92172 31.6601 10.9391 32.0815 12 32.0815H28C29.0609 32.0815 30.0783 31.6601 30.8284 30.91C31.5786 30.1598 32 29.1424 32 28.0815C32 26.3134 31.2976 24.6177 30.0474 23.3675C28.7971 22.1173 27.1014 21.4149 25.3333 21.4149H14.6667Z" fill="white"/>
</g>
<defs>
<clipPath id="clip0_9_784">
<rect width="24" height="24" fill="white" transform="translate(8 8.08154)"/>
</clipPath>
</defs>
</svg>
